<svg width="33" height="32" viewBox="0 0 33 32" fill="none" xmlns="http://www.w3.org/2000/svg">
<path d="M30.868 0H2.13201C1.69917 0 1.28405 0.171956 0.97799 0.478017C0.671929 0.784078 0.5 1.1992 0.5 1.63203V15.3147C0.5 15.7476 0.671929 16.1627 0.97799 16.4688C1.28405 16.7748 1.69917 16.9467 2.13201 16.9467H8.02889V30.368C8.02889 30.8008 8.20082 31.2159 8.50688 31.522C8.81294 31.828 9.22806 32 9.6609 32H23.3436C23.5577 32 23.7697 31.9578 23.9675 31.8757C24.1652 31.7936 24.3449 31.6733 24.496 31.5217C24.6472 31.3701 24.767 31.1902 24.8485 30.9922C24.93 30.7942 24.9717 30.5821 24.9711 30.368V16.9467H30.868C31.3008 16.9467 31.716 16.7748 32.022 16.4688C32.3281 16.1627 32.5 15.7476 32.5 15.3147V1.63203C32.5 1.1992 32.3281 0.784078 32.022 0.478017C31.716 0.171956 31.3008 0 30.868 0ZM2.3935 1.8935H15.5533V15.0533H2.3935V1.8935ZM23.0821 30.1065H9.91787V16.9467H23.0821V30.1065ZM30.6155 15.0533H17.4467V1.8935H30.6155V15.0533Z" fill="black"/>
<path d="M11.4396 10.0264C11.5284 10.1076 11.6338 10.172 11.7497 10.2157C11.8656 10.2594 11.9897 10.2816 12.1149 10.281C12.2394 10.2817 12.3629 10.2595 12.478 10.2158C12.5932 10.1721 12.6978 10.1077 12.7856 10.0264C12.8761 9.94475 12.9479 9.84733 12.997 9.73982C13.046 9.63231 13.0713 9.51685 13.0713 9.40023C13.0713 9.28361 13.046 9.16818 12.997 9.06067C12.9479 8.95316 12.8761 8.85572 12.7856 8.7741L9.74907 5.9774C9.66045 5.8941 9.55468 5.8279 9.43795 5.78273C9.32122 5.73755 9.19586 5.71429 9.06924 5.71429C8.94262 5.71429 8.81729 5.73755 8.70056 5.78273C8.58383 5.8279 8.47803 5.8941 8.38942 5.9774L5.35289 8.7741C5.17259 8.94016 5.07129 9.16539 5.07129 9.40023C5.07129 9.63508 5.17259 9.8603 5.35289 10.0264C5.53319 10.1924 5.77773 10.2857 6.03271 10.2857C6.2877 10.2857 6.53224 10.1924 6.71254 10.0264L9.07832 7.84744L11.4396 10.0264Z" fill="black"/>
<path d="M21.5518 10.0228L23.9176 7.84569L26.2834 10.0228C26.372 10.1061 26.4778 10.1722 26.5945 10.2173C26.7112 10.2625 26.8366 10.2857 26.9632 10.2857C27.0898 10.2857 27.2152 10.2625 27.3319 10.2173C27.4487 10.1722 27.5544 10.1061 27.643 10.0228C27.7335 9.94128 27.8054 9.84395 27.8544 9.73652C27.9035 9.6291 27.9287 9.51374 27.9287 9.39721C27.9287 9.28069 27.9035 9.16536 27.8544 9.05793C27.8054 8.9505 27.7335 8.85315 27.643 8.7716L24.6065 5.97718C24.5179 5.89395 24.4121 5.82781 24.2954 5.78267C24.1786 5.73753 24.0533 5.71429 23.9267 5.71429C23.8 5.71429 23.6747 5.73753 23.558 5.78267C23.4412 5.82781 23.3355 5.89395 23.2468 5.97718L20.2103 8.7716C20.03 8.93752 19.9287 9.16256 19.9287 9.39721C19.9287 9.63187 20.03 9.85691 20.2103 10.0228C20.3906 10.1888 20.6352 10.282 20.8901 10.282C21.1451 10.282 21.3897 10.1888 21.57 10.0228H21.5518Z" fill="black"/>
<path d="M13.8043 21.9736C13.5982 21.8076 13.3188 21.7143 13.0274 21.7143C12.736 21.7143 12.4565 21.8076 12.2505 21.9736C12.0444 22.1395 11.9287 22.3647 11.9287 22.5994C11.9287 22.8342 12.0444 23.0593 12.2505 23.2253L15.7258 26.0209C15.8267 26.1047 15.9475 26.1713 16.0809 26.2168C16.2144 26.2623 16.3578 26.2857 16.5027 26.2857C16.6476 26.2857 16.7911 26.2623 16.9245 26.2168C17.058 26.1713 17.1787 26.1047 17.2796 26.0209L20.7498 23.2253C20.9558 23.0593 21.0716 22.8342 21.0716 22.5994C21.0716 22.3647 20.9558 22.1395 20.7498 21.9736C20.5437 21.8076 20.2643 21.7143 19.9729 21.7143C19.6815 21.7143 19.402 21.8076 19.196 21.9736L16.5079 24.1349L13.8043 21.9736Z" fill="black"/>
</svg>
